<svg width="52" height="52" viewBox="0 0 52 52" fill="none" xmlns="http://www.w3.org/2000/svg">
<path d="M44.6875 9.34375H36.1562V6.09375C36.1562 5.87031 35.9734 5.6875 35.75 5.6875H32.9062C32.6828 5.6875 32.5 5.87031 32.5 6.09375V9.34375H19.5V6.09375C19.5 5.87031 19.3172 5.6875 19.0938 5.6875H16.25C16.0266 5.6875 15.8438 5.87031 15.8438 6.09375V9.34375H7.3125C6.41367 9.34375 5.6875 10.0699 5.6875 10.9688V44.6875C5.6875 45.5863 6.41367 46.3125 7.3125 46.3125H44.6875C45.5863 46.3125 46.3125 45.5863 46.3125 44.6875V10.9688C46.3125 10.0699 45.5863 9.34375 44.6875 9.34375ZM42.6562 42.6562H9.34375V23.3594H42.6562V42.6562ZM9.34375 19.9062V13H15.8438V15.4375C15.8438 15.6609 16.0266 15.8438 16.25 15.8438H19.0938C19.3172 15.8438 19.5 15.6609 19.5 15.4375V13H32.5V15.4375C32.5 15.6609 32.6828 15.8438 32.9062 15.8438H35.75C35.9734 15.8438 36.1562 15.6609 36.1562 15.4375V13H42.6562V19.9062H9.34375Z" fill="#B4B8C3"/>
</svg>
