<svg width="32" height="32" viewBox="0 0 32 32" fill="none" xmlns="http://www.w3.org/2000/svg">
<path d="M21.75 15H17V10.25C17 10.1125 16.8875 10 16.75 10H15.25C15.1125 10 15 10.1125 15 10.25V15H10.25C10.1125 15 10 15.1125 10 15.25V16.75C10 16.8875 10.1125 17 10.25 17H15V21.75C15 21.8875 15.1125 22 15.25 22H16.75C16.8875 22 17 21.8875 17 21.75V17H21.75C21.8875 17 22 16.8875 22 16.75V15.25C22 15.1125 21.8875 15 21.75 15Z" fill="black"/>
<path d="M16 2C8.26875 2 2 8.26875 2 16C2 23.7312 8.26875 30 16 30C23.7312 30 30 23.7312 30 16C30 8.26875 23.7312 2 16 2ZM16 27.625C9.58125 27.625 4.375 22.4187 4.375 16C4.375 9.58125 9.58125 4.375 16 4.375C22.4187 4.375 27.625 9.58125 27.625 16C27.625 22.4187 22.4187 27.625 16 27.625Z" fill="black"/>
</svg>
