<svg width="53" height="53" viewBox="0 0 53 53" fill="none" xmlns="http://www.w3.org/2000/svg">
<path d="M26.5 4.41667C14.3232 4.41667 4.41666 14.3233 4.41666 26.5C4.41666 38.6768 14.3232 48.5833 26.5 48.5833C38.6767 48.5833 48.5833 38.6768 48.5833 26.5C48.5833 14.3233 38.6767 4.41667 26.5 4.41667ZM26.5 44.1667C16.759 44.1667 8.83332 36.241 8.83332 26.5C8.83332 16.759 16.759 8.83333 26.5 8.83333C36.2409 8.83333 44.1667 16.759 44.1667 26.5C44.1667 36.241 36.2409 44.1667 26.5 44.1667Z" fill="#B4B8C3"/>
<path d="M28.7083 15.4583H24.2917V27.4142L31.5637 34.6863L34.6863 31.5637L28.7083 25.5858V15.4583Z" fill="#B4B8C3"/>
</svg>
